<mxfile host="app.diagrams.net" agent="Mozilla/5.0 (X11; Linux x86_64; rv:130.0) Gecko/20100101 Firefox/130.0" version="24.7.13">
  <diagram name="Page-1" id="mYtHZm-6skqfJzeirlGa">
    <mxGraphModel dx="2785" dy="3723" grid="1" gridSize="10" guides="1" tooltips="1" connect="1" arrows="1" fold="1" page="1" pageScale="1" pageWidth="850" pageHeight="1100" math="0" shadow="0">
      <root>
        <mxCell id="0" />
        <mxCell id="1" parent="0" />
        <mxCell id="jyqEJ0qr-PdA9ATOnDI3-1" value="1" style="rounded=1;whiteSpace=wrap;html=1;" parent="1" vertex="1">
          <mxGeometry x="700" y="-309" width="60" height="30" as="geometry" />
        </mxCell>
        <mxCell id="jyqEJ0qr-PdA9ATOnDI3-2" value="Octobre" style="shape=process;whiteSpace=wrap;html=1;backgroundOutline=1;fillColor=#647687;fontColor=#ffffff;strokeColor=#314354;" parent="1" vertex="1">
          <mxGeometry x="640" y="-380" width="420" height="60" as="geometry" />
        </mxCell>
        <mxCell id="jyqEJ0qr-PdA9ATOnDI3-9" value="2" style="rounded=1;whiteSpace=wrap;html=1;" parent="1" vertex="1">
          <mxGeometry x="760" y="-309" width="60" height="30" as="geometry" />
        </mxCell>
        <mxCell id="jyqEJ0qr-PdA9ATOnDI3-10" value="3" style="rounded=1;whiteSpace=wrap;html=1;" parent="1" vertex="1">
          <mxGeometry x="820" y="-309" width="60" height="30" as="geometry" />
        </mxCell>
        <mxCell id="jyqEJ0qr-PdA9ATOnDI3-11" value="4" style="rounded=1;whiteSpace=wrap;html=1;" parent="1" vertex="1">
          <mxGeometry x="880" y="-309" width="60" height="30" as="geometry" />
        </mxCell>
        <mxCell id="jyqEJ0qr-PdA9ATOnDI3-12" value="5" style="rounded=1;whiteSpace=wrap;html=1;" parent="1" vertex="1">
          <mxGeometry x="940" y="-309" width="60" height="30" as="geometry" />
        </mxCell>
        <mxCell id="jyqEJ0qr-PdA9ATOnDI3-13" value="6" style="rounded=1;whiteSpace=wrap;html=1;" parent="1" vertex="1">
          <mxGeometry x="1000" y="-309" width="60" height="30" as="geometry" />
        </mxCell>
        <mxCell id="jyqEJ0qr-PdA9ATOnDI3-14" value="8" style="rounded=1;whiteSpace=wrap;html=1;" parent="1" vertex="1">
          <mxGeometry x="700" y="-249" width="60" height="30" as="geometry" />
        </mxCell>
        <mxCell id="jyqEJ0qr-PdA9ATOnDI3-15" value="9" style="rounded=1;whiteSpace=wrap;html=1;" parent="1" vertex="1">
          <mxGeometry x="760" y="-249" width="60" height="30" as="geometry" />
        </mxCell>
        <mxCell id="jyqEJ0qr-PdA9ATOnDI3-16" value="10" style="rounded=1;whiteSpace=wrap;html=1;" parent="1" vertex="1">
          <mxGeometry x="820" y="-249" width="60" height="30" as="geometry" />
        </mxCell>
        <mxCell id="jyqEJ0qr-PdA9ATOnDI3-17" value="11" style="rounded=1;whiteSpace=wrap;html=1;" parent="1" vertex="1">
          <mxGeometry x="880" y="-249" width="60" height="30" as="geometry" />
        </mxCell>
        <mxCell id="jyqEJ0qr-PdA9ATOnDI3-18" value="12" style="rounded=1;whiteSpace=wrap;html=1;" parent="1" vertex="1">
          <mxGeometry x="940" y="-249" width="60" height="30" as="geometry" />
        </mxCell>
        <mxCell id="jyqEJ0qr-PdA9ATOnDI3-19" value="13" style="rounded=1;whiteSpace=wrap;html=1;" parent="1" vertex="1">
          <mxGeometry x="1000" y="-249" width="60" height="30" as="geometry" />
        </mxCell>
        <mxCell id="jyqEJ0qr-PdA9ATOnDI3-20" value="16" style="rounded=1;whiteSpace=wrap;html=1;" parent="1" vertex="1">
          <mxGeometry x="760" y="-189" width="60" height="30" as="geometry" />
        </mxCell>
        <mxCell id="jyqEJ0qr-PdA9ATOnDI3-21" value="17" style="rounded=1;whiteSpace=wrap;html=1;fillColor=#ffcc99;strokeColor=#36393d;" parent="1" vertex="1">
          <mxGeometry x="820" y="-189" width="60" height="60" as="geometry" />
        </mxCell>
        <mxCell id="jyqEJ0qr-PdA9ATOnDI3-22" value="18" style="rounded=1;whiteSpace=wrap;html=1;" parent="1" vertex="1">
          <mxGeometry x="880" y="-189" width="60" height="30" as="geometry" />
        </mxCell>
        <mxCell id="jyqEJ0qr-PdA9ATOnDI3-23" value="7" style="rounded=1;whiteSpace=wrap;html=1;" parent="1" vertex="1">
          <mxGeometry x="640" y="-249" width="60" height="30" as="geometry" />
        </mxCell>
        <mxCell id="jyqEJ0qr-PdA9ATOnDI3-24" value="19" style="rounded=1;whiteSpace=wrap;html=1;fillColor=#eeeeee;strokeColor=#36393d;" parent="1" vertex="1">
          <mxGeometry x="940" y="-189" width="60" height="60" as="geometry" />
        </mxCell>
        <mxCell id="jyqEJ0qr-PdA9ATOnDI3-25" value="20" style="rounded=1;whiteSpace=wrap;html=1;fillColor=#eeeeee;strokeColor=#36393d;" parent="1" vertex="1">
          <mxGeometry x="1000" y="-189" width="60" height="60" as="geometry" />
        </mxCell>
        <mxCell id="jyqEJ0qr-PdA9ATOnDI3-26" value="14" style="rounded=1;whiteSpace=wrap;html=1;" parent="1" vertex="1">
          <mxGeometry x="640" y="-189" width="60" height="30" as="geometry" />
        </mxCell>
        <mxCell id="jyqEJ0qr-PdA9ATOnDI3-27" value="15" style="rounded=1;whiteSpace=wrap;html=1;" parent="1" vertex="1">
          <mxGeometry x="700" y="-189" width="60" height="30" as="geometry" />
        </mxCell>
        <mxCell id="jyqEJ0qr-PdA9ATOnDI3-29" value="23" style="rounded=1;whiteSpace=wrap;html=1;fillColor=#eeeeee;strokeColor=#36393d;" parent="1" vertex="1">
          <mxGeometry x="760" y="-129" width="60" height="60" as="geometry" />
        </mxCell>
        <mxCell id="jyqEJ0qr-PdA9ATOnDI3-30" value="24" style="rounded=1;whiteSpace=wrap;html=1;fillColor=#eeeeee;strokeColor=#36393d;" parent="1" vertex="1">
          <mxGeometry x="820" y="-129" width="60" height="60" as="geometry" />
        </mxCell>
        <mxCell id="jyqEJ0qr-PdA9ATOnDI3-31" value="25" style="rounded=1;whiteSpace=wrap;html=1;fillColor=#eeeeee;strokeColor=#36393d;" parent="1" vertex="1">
          <mxGeometry x="880" y="-129" width="60" height="60" as="geometry" />
        </mxCell>
        <mxCell id="jyqEJ0qr-PdA9ATOnDI3-32" value="26" style="rounded=1;whiteSpace=wrap;html=1;fillColor=#eeeeee;strokeColor=#36393d;" parent="1" vertex="1">
          <mxGeometry x="940" y="-129" width="60" height="60" as="geometry" />
        </mxCell>
        <mxCell id="jyqEJ0qr-PdA9ATOnDI3-33" value="27" style="rounded=1;whiteSpace=wrap;html=1;fillColor=#eeeeee;strokeColor=#36393d;" parent="1" vertex="1">
          <mxGeometry x="1000" y="-129" width="60" height="60" as="geometry" />
        </mxCell>
        <mxCell id="jyqEJ0qr-PdA9ATOnDI3-34" value="21" style="rounded=1;whiteSpace=wrap;html=1;fillColor=#eeeeee;strokeColor=#36393d;" parent="1" vertex="1">
          <mxGeometry x="640" y="-129" width="60" height="60" as="geometry" />
        </mxCell>
        <mxCell id="jyqEJ0qr-PdA9ATOnDI3-35" value="22" style="rounded=1;whiteSpace=wrap;html=1;fillColor=#eeeeee;strokeColor=#36393d;" parent="1" vertex="1">
          <mxGeometry x="700" y="-129" width="60" height="60" as="geometry" />
        </mxCell>
        <mxCell id="jyqEJ0qr-PdA9ATOnDI3-36" value="30" style="rounded=1;whiteSpace=wrap;html=1;fillColor=#eeeeee;strokeColor=#36393d;" parent="1" vertex="1">
          <mxGeometry x="760" y="-69" width="60" height="60" as="geometry" />
        </mxCell>
        <mxCell id="jyqEJ0qr-PdA9ATOnDI3-37" value="31" style="rounded=1;whiteSpace=wrap;html=1;fillColor=#eeeeee;strokeColor=#36393d;" parent="1" vertex="1">
          <mxGeometry x="820" y="-69" width="60" height="60" as="geometry" />
        </mxCell>
        <mxCell id="jyqEJ0qr-PdA9ATOnDI3-38" value="1" style="rounded=1;whiteSpace=wrap;html=1;fillColor=#eeeeee;strokeColor=#36393d;" parent="1" vertex="1">
          <mxGeometry x="880" y="143" width="60" height="60" as="geometry" />
        </mxCell>
        <mxCell id="jyqEJ0qr-PdA9ATOnDI3-39" value="2" style="rounded=1;whiteSpace=wrap;html=1;fillColor=#eeeeee;strokeColor=#36393d;" parent="1" vertex="1">
          <mxGeometry x="940" y="143" width="60" height="60" as="geometry" />
        </mxCell>
        <mxCell id="jyqEJ0qr-PdA9ATOnDI3-40" value="3" style="rounded=1;whiteSpace=wrap;html=1;fillColor=#eeeeee;strokeColor=#36393d;" parent="1" vertex="1">
          <mxGeometry x="1000" y="143" width="60" height="60" as="geometry" />
        </mxCell>
        <mxCell id="jyqEJ0qr-PdA9ATOnDI3-41" value="28" style="rounded=1;whiteSpace=wrap;html=1;fillColor=#eeeeee;strokeColor=#36393d;" parent="1" vertex="1">
          <mxGeometry x="640" y="-69" width="60" height="60" as="geometry" />
        </mxCell>
        <mxCell id="jyqEJ0qr-PdA9ATOnDI3-42" value="29" style="rounded=1;whiteSpace=wrap;html=1;fillColor=#eeeeee;strokeColor=#36393d;" parent="1" vertex="1">
          <mxGeometry x="700" y="-69" width="60" height="60" as="geometry" />
        </mxCell>
        <mxCell id="jyqEJ0qr-PdA9ATOnDI3-43" value="Novembre" style="shape=process;whiteSpace=wrap;html=1;backgroundOutline=1;fillColor=#647687;strokeColor=#314354;fontColor=#ffffff;" parent="1" vertex="1">
          <mxGeometry x="640" y="72" width="420" height="60" as="geometry" />
        </mxCell>
        <mxCell id="jyqEJ0qr-PdA9ATOnDI3-44" value="5" style="rounded=1;whiteSpace=wrap;html=1;" parent="1" vertex="1">
          <mxGeometry x="700" y="203" width="60" height="30" as="geometry" />
        </mxCell>
        <mxCell id="jyqEJ0qr-PdA9ATOnDI3-45" value="6" style="rounded=1;whiteSpace=wrap;html=1;" parent="1" vertex="1">
          <mxGeometry x="760" y="203" width="60" height="30" as="geometry" />
        </mxCell>
        <mxCell id="jyqEJ0qr-PdA9ATOnDI3-46" value="7" style="rounded=1;whiteSpace=wrap;html=1;" parent="1" vertex="1">
          <mxGeometry x="820" y="203" width="60" height="30" as="geometry" />
        </mxCell>
        <mxCell id="jyqEJ0qr-PdA9ATOnDI3-47" value="8" style="rounded=1;whiteSpace=wrap;html=1;" parent="1" vertex="1">
          <mxGeometry x="880" y="203" width="60" height="30" as="geometry" />
        </mxCell>
        <mxCell id="jyqEJ0qr-PdA9ATOnDI3-48" value="9" style="rounded=1;whiteSpace=wrap;html=1;" parent="1" vertex="1">
          <mxGeometry x="940" y="203" width="60" height="30" as="geometry" />
        </mxCell>
        <mxCell id="jyqEJ0qr-PdA9ATOnDI3-49" value="10" style="rounded=1;whiteSpace=wrap;html=1;" parent="1" vertex="1">
          <mxGeometry x="1000" y="203" width="60" height="30" as="geometry" />
        </mxCell>
        <mxCell id="jyqEJ0qr-PdA9ATOnDI3-50" value="13" style="rounded=1;whiteSpace=wrap;html=1;" parent="1" vertex="1">
          <mxGeometry x="760" y="263" width="60" height="30" as="geometry" />
        </mxCell>
        <mxCell id="jyqEJ0qr-PdA9ATOnDI3-51" value="14" style="rounded=1;whiteSpace=wrap;html=1;" parent="1" vertex="1">
          <mxGeometry x="820" y="263" width="60" height="30" as="geometry" />
        </mxCell>
        <mxCell id="jyqEJ0qr-PdA9ATOnDI3-52" value="15" style="rounded=1;whiteSpace=wrap;html=1;" parent="1" vertex="1">
          <mxGeometry x="880" y="263" width="60" height="30" as="geometry" />
        </mxCell>
        <mxCell id="jyqEJ0qr-PdA9ATOnDI3-53" value="4" style="rounded=1;whiteSpace=wrap;html=1;" parent="1" vertex="1">
          <mxGeometry x="640" y="203" width="60" height="30" as="geometry" />
        </mxCell>
        <mxCell id="jyqEJ0qr-PdA9ATOnDI3-54" value="16" style="rounded=1;whiteSpace=wrap;html=1;" parent="1" vertex="1">
          <mxGeometry x="940" y="263" width="60" height="30" as="geometry" />
        </mxCell>
        <mxCell id="jyqEJ0qr-PdA9ATOnDI3-55" value="17" style="rounded=1;whiteSpace=wrap;html=1;" parent="1" vertex="1">
          <mxGeometry x="1000" y="263" width="60" height="30" as="geometry" />
        </mxCell>
        <mxCell id="jyqEJ0qr-PdA9ATOnDI3-56" value="11" style="rounded=1;whiteSpace=wrap;html=1;" parent="1" vertex="1">
          <mxGeometry x="640" y="263" width="60" height="30" as="geometry" />
        </mxCell>
        <mxCell id="jyqEJ0qr-PdA9ATOnDI3-57" value="12" style="rounded=1;whiteSpace=wrap;html=1;" parent="1" vertex="1">
          <mxGeometry x="700" y="263" width="60" height="30" as="geometry" />
        </mxCell>
        <mxCell id="jyqEJ0qr-PdA9ATOnDI3-58" value="20" style="rounded=1;whiteSpace=wrap;html=1;" parent="1" vertex="1">
          <mxGeometry x="760" y="323" width="60" height="30" as="geometry" />
        </mxCell>
        <mxCell id="jyqEJ0qr-PdA9ATOnDI3-59" value="21" style="rounded=1;whiteSpace=wrap;html=1;" parent="1" vertex="1">
          <mxGeometry x="820" y="323" width="60" height="30" as="geometry" />
        </mxCell>
        <mxCell id="jyqEJ0qr-PdA9ATOnDI3-60" value="22" style="rounded=1;whiteSpace=wrap;html=1;" parent="1" vertex="1">
          <mxGeometry x="880" y="323" width="60" height="30" as="geometry" />
        </mxCell>
        <mxCell id="jyqEJ0qr-PdA9ATOnDI3-61" value="23" style="rounded=1;whiteSpace=wrap;html=1;" parent="1" vertex="1">
          <mxGeometry x="940" y="323" width="60" height="30" as="geometry" />
        </mxCell>
        <mxCell id="jyqEJ0qr-PdA9ATOnDI3-62" value="24" style="rounded=1;whiteSpace=wrap;html=1;" parent="1" vertex="1">
          <mxGeometry x="1000" y="323" width="60" height="30" as="geometry" />
        </mxCell>
        <mxCell id="jyqEJ0qr-PdA9ATOnDI3-63" value="18" style="rounded=1;whiteSpace=wrap;html=1;" parent="1" vertex="1">
          <mxGeometry x="640" y="323" width="60" height="30" as="geometry" />
        </mxCell>
        <mxCell id="jyqEJ0qr-PdA9ATOnDI3-64" value="19" style="rounded=1;whiteSpace=wrap;html=1;" parent="1" vertex="1">
          <mxGeometry x="700" y="323" width="60" height="30" as="geometry" />
        </mxCell>
        <mxCell id="jyqEJ0qr-PdA9ATOnDI3-65" value="Moteur 3D" style="rounded=0;whiteSpace=wrap;html=1;fillColor=#cce5ff;strokeColor=#36393d;fontStyle=0" parent="1" vertex="1">
          <mxGeometry x="1740" y="-1010" width="120" height="60" as="geometry" />
        </mxCell>
        <mxCell id="jyqEJ0qr-PdA9ATOnDI3-66" value="&lt;div&gt;Génération du&lt;/div&gt;&lt;div&gt;terrain&lt;br&gt;&lt;/div&gt;" style="rounded=0;whiteSpace=wrap;html=1;fillColor=#cdeb8b;strokeColor=#36393d;fontStyle=0" parent="1" vertex="1">
          <mxGeometry x="1740" y="-890" width="120" height="60" as="geometry" />
        </mxCell>
        <mxCell id="jyqEJ0qr-PdA9ATOnDI3-67" value="&lt;div&gt;Raw 3D models&lt;/div&gt;(tests capa moteur)" style="rounded=0;whiteSpace=wrap;html=1;fillColor=#ffff88;strokeColor=#36393d;fontStyle=0" parent="1" vertex="1">
          <mxGeometry x="1740" y="-950" width="120" height="60" as="geometry" />
        </mxCell>
        <mxCell id="jyqEJ0qr-PdA9ATOnDI3-68" value="&lt;div&gt;Cube-Morpion&lt;/div&gt;&lt;div&gt;pour les portes&lt;br&gt;&lt;/div&gt;" style="rounded=0;whiteSpace=wrap;html=1;fillColor=#ffcccc;strokeColor=#36393d;fontStyle=0" parent="1" vertex="1">
          <mxGeometry x="1740" y="-830" width="120" height="60" as="geometry" />
        </mxCell>
        <mxCell id="jyqEJ0qr-PdA9ATOnDI3-69" value="&lt;div&gt;Tests Model 3D&lt;/div&gt;&lt;div&gt;personnage&lt;br&gt;&lt;/div&gt;" style="rounded=0;whiteSpace=wrap;html=1;fontStyle=0;fillColor=#f9f7ed;strokeColor=#36393d;" parent="1" vertex="1">
          <mxGeometry x="1740" y="-770" width="120" height="60" as="geometry" />
        </mxCell>
        <mxCell id="jyqEJ0qr-PdA9ATOnDI3-88" value="&lt;div&gt;Indisponibilités&lt;br&gt;&lt;/div&gt;&lt;div&gt;(Vacances/Examens)&lt;/div&gt;" style="rounded=0;whiteSpace=wrap;html=1;fillColor=#eeeeee;strokeColor=#36393d;" parent="1" vertex="1">
          <mxGeometry x="1740" y="-700" width="120" height="60" as="geometry" />
        </mxCell>
        <mxCell id="jyqEJ0qr-PdA9ATOnDI3-89" value="25" style="rounded=1;whiteSpace=wrap;html=1;" parent="1" vertex="1">
          <mxGeometry x="640" y="383" width="60" height="30" as="geometry" />
        </mxCell>
        <mxCell id="jyqEJ0qr-PdA9ATOnDI3-90" value="26" style="rounded=1;whiteSpace=wrap;html=1;" parent="1" vertex="1">
          <mxGeometry x="700" y="383" width="60" height="30" as="geometry" />
        </mxCell>
        <mxCell id="jyqEJ0qr-PdA9ATOnDI3-91" value="30" style="rounded=1;whiteSpace=wrap;html=1;" parent="1" vertex="1">
          <mxGeometry x="940" y="383" width="60" height="30" as="geometry" />
        </mxCell>
        <mxCell id="jyqEJ0qr-PdA9ATOnDI3-93" value="28" style="rounded=1;whiteSpace=wrap;html=1;fillColor=#ffcc99;strokeColor=#36393d;" parent="1" vertex="1">
          <mxGeometry x="820" y="383" width="60" height="30" as="geometry" />
        </mxCell>
        <mxCell id="jyqEJ0qr-PdA9ATOnDI3-94" value="29" style="rounded=1;whiteSpace=wrap;html=1;" parent="1" vertex="1">
          <mxGeometry x="880" y="383" width="60" height="30" as="geometry" />
        </mxCell>
        <mxCell id="jyqEJ0qr-PdA9ATOnDI3-95" value="27" style="rounded=1;whiteSpace=wrap;html=1;" parent="1" vertex="1">
          <mxGeometry x="760" y="383" width="60" height="30" as="geometry" />
        </mxCell>
        <mxCell id="jyqEJ0qr-PdA9ATOnDI3-96" value="MEETING" style="rounded=0;whiteSpace=wrap;html=1;fillColor=#ffcc99;strokeColor=#36393d;" parent="1" vertex="1">
          <mxGeometry x="1740" y="-640" width="120" height="60" as="geometry" />
        </mxCell>
        <mxCell id="jyqEJ0qr-PdA9ATOnDI3-97" value="Décembre" style="shape=process;whiteSpace=wrap;html=1;backgroundOutline=1;fillColor=#647687;strokeColor=#314354;fontColor=#ffffff;" parent="1" vertex="1">
          <mxGeometry x="1320" y="-380" width="420" height="60" as="geometry" />
        </mxCell>
        <mxCell id="jyqEJ0qr-PdA9ATOnDI3-98" value="Janvier" style="shape=process;whiteSpace=wrap;html=1;backgroundOutline=1;fillColor=#647687;strokeColor=#314354;fontColor=#ffffff;" parent="1" vertex="1">
          <mxGeometry x="1320" y="72" width="420" height="60" as="geometry" />
        </mxCell>
        <mxCell id="jyqEJ0qr-PdA9ATOnDI3-99" value="1" style="rounded=1;whiteSpace=wrap;html=1;" parent="1" vertex="1">
          <mxGeometry x="1680" y="-308" width="60" height="30" as="geometry" />
        </mxCell>
        <mxCell id="jyqEJ0qr-PdA9ATOnDI3-100" value="2" style="rounded=1;whiteSpace=wrap;html=1;" parent="1" vertex="1">
          <mxGeometry x="1320" y="-248" width="60" height="30" as="geometry" />
        </mxCell>
        <mxCell id="jyqEJ0qr-PdA9ATOnDI3-101" value="3" style="rounded=1;whiteSpace=wrap;html=1;" parent="1" vertex="1">
          <mxGeometry x="1380" y="-248" width="60" height="30" as="geometry" />
        </mxCell>
        <mxCell id="jyqEJ0qr-PdA9ATOnDI3-102" value="4" style="rounded=1;whiteSpace=wrap;html=1;" parent="1" vertex="1">
          <mxGeometry x="1440" y="-248" width="60" height="30" as="geometry" />
        </mxCell>
        <mxCell id="jyqEJ0qr-PdA9ATOnDI3-103" value="5" style="rounded=1;whiteSpace=wrap;html=1;" parent="1" vertex="1">
          <mxGeometry x="1500" y="-248" width="60" height="30" as="geometry" />
        </mxCell>
        <mxCell id="jyqEJ0qr-PdA9ATOnDI3-104" value="6" style="rounded=1;whiteSpace=wrap;html=1;" parent="1" vertex="1">
          <mxGeometry x="1560" y="-248" width="60" height="30" as="geometry" />
        </mxCell>
        <mxCell id="jyqEJ0qr-PdA9ATOnDI3-105" value="7" style="rounded=1;whiteSpace=wrap;html=1;" parent="1" vertex="1">
          <mxGeometry x="1620" y="-248" width="60" height="30" as="geometry" />
        </mxCell>
        <mxCell id="jyqEJ0qr-PdA9ATOnDI3-106" value="8" style="rounded=1;whiteSpace=wrap;html=1;" parent="1" vertex="1">
          <mxGeometry x="1680" y="-248" width="60" height="30" as="geometry" />
        </mxCell>
        <mxCell id="jyqEJ0qr-PdA9ATOnDI3-108" value="9" style="rounded=1;whiteSpace=wrap;html=1;" parent="1" vertex="1">
          <mxGeometry x="1320" y="-188" width="60" height="60" as="geometry" />
        </mxCell>
        <mxCell id="jyqEJ0qr-PdA9ATOnDI3-109" value="10" style="rounded=1;whiteSpace=wrap;html=1;" parent="1" vertex="1">
          <mxGeometry x="1380" y="-188" width="60" height="60" as="geometry" />
        </mxCell>
        <mxCell id="jyqEJ0qr-PdA9ATOnDI3-110" value="11" style="rounded=1;whiteSpace=wrap;html=1;" parent="1" vertex="1">
          <mxGeometry x="1440" y="-188" width="60" height="60" as="geometry" />
        </mxCell>
        <mxCell id="jyqEJ0qr-PdA9ATOnDI3-111" value="12" style="rounded=1;whiteSpace=wrap;html=1;" parent="1" vertex="1">
          <mxGeometry x="1500" y="-188" width="60" height="60" as="geometry" />
        </mxCell>
        <mxCell id="jyqEJ0qr-PdA9ATOnDI3-112" value="13" style="rounded=1;whiteSpace=wrap;html=1;" parent="1" vertex="1">
          <mxGeometry x="1560" y="-188" width="60" height="60" as="geometry" />
        </mxCell>
        <mxCell id="jyqEJ0qr-PdA9ATOnDI3-113" value="16" style="rounded=1;whiteSpace=wrap;html=1;" parent="1" vertex="1">
          <mxGeometry x="1320" y="-128" width="60" height="60" as="geometry" />
        </mxCell>
        <mxCell id="jyqEJ0qr-PdA9ATOnDI3-114" value="17" style="rounded=1;whiteSpace=wrap;html=1;" parent="1" vertex="1">
          <mxGeometry x="1380" y="-128" width="60" height="60" as="geometry" />
        </mxCell>
        <mxCell id="jyqEJ0qr-PdA9ATOnDI3-115" value="18" style="rounded=1;whiteSpace=wrap;html=1;" parent="1" vertex="1">
          <mxGeometry x="1440" y="-128" width="60" height="60" as="geometry" />
        </mxCell>
        <mxCell id="jyqEJ0qr-PdA9ATOnDI3-117" value="19" style="rounded=1;whiteSpace=wrap;html=1;fillColor=#ffcc99;strokeColor=#36393d;" parent="1" vertex="1">
          <mxGeometry x="1500" y="-128" width="60" height="60" as="geometry" />
        </mxCell>
        <mxCell id="jyqEJ0qr-PdA9ATOnDI3-118" value="20" style="rounded=1;whiteSpace=wrap;html=1;" parent="1" vertex="1">
          <mxGeometry x="1560" y="-128" width="60" height="60" as="geometry" />
        </mxCell>
        <mxCell id="jyqEJ0qr-PdA9ATOnDI3-119" value="14" style="rounded=1;whiteSpace=wrap;html=1;" parent="1" vertex="1">
          <mxGeometry x="1620" y="-188" width="60" height="60" as="geometry" />
        </mxCell>
        <mxCell id="jyqEJ0qr-PdA9ATOnDI3-120" value="15" style="rounded=1;whiteSpace=wrap;html=1;" parent="1" vertex="1">
          <mxGeometry x="1680" y="-188" width="60" height="60" as="geometry" />
        </mxCell>
        <mxCell id="jyqEJ0qr-PdA9ATOnDI3-121" value="23" style="rounded=1;whiteSpace=wrap;html=1;fillColor=#eeeeee;strokeColor=#36393d;" parent="1" vertex="1">
          <mxGeometry x="1320" y="-68" width="60" height="60" as="geometry" />
        </mxCell>
        <mxCell id="jyqEJ0qr-PdA9ATOnDI3-122" value="24" style="rounded=1;whiteSpace=wrap;html=1;fillColor=#eeeeee;strokeColor=#36393d;" parent="1" vertex="1">
          <mxGeometry x="1380" y="-68" width="60" height="60" as="geometry" />
        </mxCell>
        <mxCell id="jyqEJ0qr-PdA9ATOnDI3-123" value="25" style="rounded=1;whiteSpace=wrap;html=1;fillColor=#eeeeee;strokeColor=#36393d;" parent="1" vertex="1">
          <mxGeometry x="1440" y="-68" width="60" height="60" as="geometry" />
        </mxCell>
        <mxCell id="jyqEJ0qr-PdA9ATOnDI3-124" value="26" style="rounded=1;whiteSpace=wrap;html=1;fillColor=#eeeeee;strokeColor=#36393d;" parent="1" vertex="1">
          <mxGeometry x="1500" y="-68" width="60" height="60" as="geometry" />
        </mxCell>
        <mxCell id="jyqEJ0qr-PdA9ATOnDI3-125" value="27" style="rounded=1;whiteSpace=wrap;html=1;fillColor=#eeeeee;strokeColor=#36393d;" parent="1" vertex="1">
          <mxGeometry x="1560" y="-68" width="60" height="60" as="geometry" />
        </mxCell>
        <mxCell id="jyqEJ0qr-PdA9ATOnDI3-126" value="21" style="rounded=1;whiteSpace=wrap;html=1;fillColor=#eeeeee;strokeColor=#36393d;" parent="1" vertex="1">
          <mxGeometry x="1620" y="-128" width="60" height="60" as="geometry" />
        </mxCell>
        <mxCell id="jyqEJ0qr-PdA9ATOnDI3-127" value="22" style="rounded=1;whiteSpace=wrap;html=1;fillColor=#eeeeee;strokeColor=#36393d;" parent="1" vertex="1">
          <mxGeometry x="1680" y="-128" width="60" height="60" as="geometry" />
        </mxCell>
        <mxCell id="jyqEJ0qr-PdA9ATOnDI3-128" value="30" style="rounded=1;whiteSpace=wrap;html=1;fillColor=#eeeeee;strokeColor=#36393d;" parent="1" vertex="1">
          <mxGeometry x="1320" y="-8" width="60" height="60" as="geometry" />
        </mxCell>
        <mxCell id="jyqEJ0qr-PdA9ATOnDI3-129" value="31" style="rounded=1;whiteSpace=wrap;html=1;fillColor=#eeeeee;strokeColor=#36393d;" parent="1" vertex="1">
          <mxGeometry x="1380" y="-8" width="60" height="60" as="geometry" />
        </mxCell>
        <mxCell id="jyqEJ0qr-PdA9ATOnDI3-130" value="28" style="rounded=1;whiteSpace=wrap;html=1;fillColor=#eeeeee;strokeColor=#36393d;" parent="1" vertex="1">
          <mxGeometry x="1620" y="-68" width="60" height="60" as="geometry" />
        </mxCell>
        <mxCell id="jyqEJ0qr-PdA9ATOnDI3-131" value="29" style="rounded=1;whiteSpace=wrap;html=1;fillColor=#eeeeee;strokeColor=#36393d;" parent="1" vertex="1">
          <mxGeometry x="1680" y="-68" width="60" height="60" as="geometry" />
        </mxCell>
        <mxCell id="jyqEJ0qr-PdA9ATOnDI3-132" value="1" style="rounded=1;whiteSpace=wrap;html=1;fillColor=#eeeeee;strokeColor=#36393d;" parent="1" vertex="1">
          <mxGeometry x="1440" y="143" width="60" height="60" as="geometry" />
        </mxCell>
        <mxCell id="jyqEJ0qr-PdA9ATOnDI3-133" value="2" style="rounded=1;whiteSpace=wrap;html=1;fillColor=#eeeeee;strokeColor=#36393d;" parent="1" vertex="1">
          <mxGeometry x="1500" y="143" width="60" height="60" as="geometry" />
        </mxCell>
        <mxCell id="jyqEJ0qr-PdA9ATOnDI3-134" value="3" style="rounded=1;whiteSpace=wrap;html=1;fillColor=#eeeeee;strokeColor=#36393d;" parent="1" vertex="1">
          <mxGeometry x="1560" y="143" width="60" height="60" as="geometry" />
        </mxCell>
        <mxCell id="jyqEJ0qr-PdA9ATOnDI3-135" value="4" style="rounded=1;whiteSpace=wrap;html=1;fillColor=#eeeeee;strokeColor=#36393d;" parent="1" vertex="1">
          <mxGeometry x="1620" y="143" width="60" height="60" as="geometry" />
        </mxCell>
        <mxCell id="jyqEJ0qr-PdA9ATOnDI3-136" value="5" style="rounded=1;whiteSpace=wrap;html=1;fillColor=#eeeeee;strokeColor=#36393d;" parent="1" vertex="1">
          <mxGeometry x="1680" y="143" width="60" height="60" as="geometry" />
        </mxCell>
        <mxCell id="jyqEJ0qr-PdA9ATOnDI3-137" value="6" style="rounded=1;whiteSpace=wrap;html=1;" parent="1" vertex="1">
          <mxGeometry x="1320" y="203" width="60" height="60" as="geometry" />
        </mxCell>
        <mxCell id="jyqEJ0qr-PdA9ATOnDI3-138" value="8" style="rounded=1;whiteSpace=wrap;html=1;" parent="1" vertex="1">
          <mxGeometry x="1440" y="203" width="60" height="60" as="geometry" />
        </mxCell>
        <mxCell id="jyqEJ0qr-PdA9ATOnDI3-139" value="9" style="rounded=1;whiteSpace=wrap;html=1;" parent="1" vertex="1">
          <mxGeometry x="1500" y="203" width="60" height="60" as="geometry" />
        </mxCell>
        <mxCell id="jyqEJ0qr-PdA9ATOnDI3-140" value="10" style="rounded=1;whiteSpace=wrap;html=1;" parent="1" vertex="1">
          <mxGeometry x="1560" y="203" width="60" height="60" as="geometry" />
        </mxCell>
        <mxCell id="jyqEJ0qr-PdA9ATOnDI3-141" value="11" style="rounded=1;whiteSpace=wrap;html=1;" parent="1" vertex="1">
          <mxGeometry x="1620" y="203" width="60" height="60" as="geometry" />
        </mxCell>
        <mxCell id="jyqEJ0qr-PdA9ATOnDI3-142" value="12" style="rounded=1;whiteSpace=wrap;html=1;" parent="1" vertex="1">
          <mxGeometry x="1680" y="203" width="60" height="60" as="geometry" />
        </mxCell>
        <mxCell id="jyqEJ0qr-PdA9ATOnDI3-143" value="13" style="rounded=1;whiteSpace=wrap;html=1;" parent="1" vertex="1">
          <mxGeometry x="1320" y="263" width="60" height="60" as="geometry" />
        </mxCell>
        <mxCell id="jyqEJ0qr-PdA9ATOnDI3-144" value="16" style="rounded=1;whiteSpace=wrap;html=1;" parent="1" vertex="1">
          <mxGeometry x="1500" y="263" width="60" height="60" as="geometry" />
        </mxCell>
        <mxCell id="jyqEJ0qr-PdA9ATOnDI3-145" value="17" style="rounded=1;whiteSpace=wrap;html=1;" parent="1" vertex="1">
          <mxGeometry x="1560" y="263" width="60" height="60" as="geometry" />
        </mxCell>
        <mxCell id="jyqEJ0qr-PdA9ATOnDI3-146" value="18" style="rounded=1;whiteSpace=wrap;html=1;" parent="1" vertex="1">
          <mxGeometry x="1620" y="263" width="60" height="60" as="geometry" />
        </mxCell>
        <mxCell id="jyqEJ0qr-PdA9ATOnDI3-147" value="7" style="rounded=1;whiteSpace=wrap;html=1;" parent="1" vertex="1">
          <mxGeometry x="1380" y="203" width="60" height="60" as="geometry" />
        </mxCell>
        <mxCell id="jyqEJ0qr-PdA9ATOnDI3-148" value="19" style="rounded=1;whiteSpace=wrap;html=1;" parent="1" vertex="1">
          <mxGeometry x="1680" y="263" width="60" height="60" as="geometry" />
        </mxCell>
        <mxCell id="jyqEJ0qr-PdA9ATOnDI3-149" value="20" style="rounded=1;whiteSpace=wrap;html=1;" parent="1" vertex="1">
          <mxGeometry x="1320" y="323" width="60" height="60" as="geometry" />
        </mxCell>
        <mxCell id="jyqEJ0qr-PdA9ATOnDI3-150" value="14" style="rounded=1;whiteSpace=wrap;html=1;" parent="1" vertex="1">
          <mxGeometry x="1380" y="263" width="60" height="60" as="geometry" />
        </mxCell>
        <mxCell id="jyqEJ0qr-PdA9ATOnDI3-151" value="15" style="rounded=1;whiteSpace=wrap;html=1;" parent="1" vertex="1">
          <mxGeometry x="1440" y="263" width="60" height="60" as="geometry" />
        </mxCell>
        <mxCell id="jyqEJ0qr-PdA9ATOnDI3-152" value="23" style="rounded=1;whiteSpace=wrap;html=1;" parent="1" vertex="1">
          <mxGeometry x="1500" y="323" width="60" height="60" as="geometry" />
        </mxCell>
        <mxCell id="jyqEJ0qr-PdA9ATOnDI3-153" value="24" style="rounded=1;whiteSpace=wrap;html=1;" parent="1" vertex="1">
          <mxGeometry x="1560" y="323" width="60" height="60" as="geometry" />
        </mxCell>
        <mxCell id="jyqEJ0qr-PdA9ATOnDI3-154" value="25" style="rounded=1;whiteSpace=wrap;html=1;" parent="1" vertex="1">
          <mxGeometry x="1620" y="323" width="60" height="60" as="geometry" />
        </mxCell>
        <mxCell id="jyqEJ0qr-PdA9ATOnDI3-155" value="26" style="rounded=1;whiteSpace=wrap;html=1;" parent="1" vertex="1">
          <mxGeometry x="1680" y="323" width="60" height="60" as="geometry" />
        </mxCell>
        <mxCell id="jyqEJ0qr-PdA9ATOnDI3-156" value="27" style="rounded=1;whiteSpace=wrap;html=1;" parent="1" vertex="1">
          <mxGeometry x="1320" y="383" width="60" height="60" as="geometry" />
        </mxCell>
        <mxCell id="jyqEJ0qr-PdA9ATOnDI3-157" value="21" style="rounded=1;whiteSpace=wrap;html=1;" parent="1" vertex="1">
          <mxGeometry x="1380" y="323" width="60" height="60" as="geometry" />
        </mxCell>
        <mxCell id="jyqEJ0qr-PdA9ATOnDI3-158" value="22" style="rounded=1;whiteSpace=wrap;html=1;" parent="1" vertex="1">
          <mxGeometry x="1440" y="323" width="60" height="60" as="geometry" />
        </mxCell>
        <mxCell id="jyqEJ0qr-PdA9ATOnDI3-159" value="30" style="rounded=1;whiteSpace=wrap;html=1;fillColor=#ffcc99;strokeColor=#36393d;" parent="1" vertex="1">
          <mxGeometry x="1500" y="383" width="60" height="60" as="geometry" />
        </mxCell>
        <mxCell id="jyqEJ0qr-PdA9ATOnDI3-160" value="31" style="rounded=1;whiteSpace=wrap;html=1;" parent="1" vertex="1">
          <mxGeometry x="1560" y="383" width="60" height="60" as="geometry" />
        </mxCell>
        <mxCell id="jyqEJ0qr-PdA9ATOnDI3-161" value="28" style="rounded=1;whiteSpace=wrap;html=1;" parent="1" vertex="1">
          <mxGeometry x="1380" y="383" width="60" height="60" as="geometry" />
        </mxCell>
        <mxCell id="jyqEJ0qr-PdA9ATOnDI3-162" value="29" style="rounded=1;whiteSpace=wrap;html=1;" parent="1" vertex="1">
          <mxGeometry x="1440" y="383" width="60" height="60" as="geometry" />
        </mxCell>
        <mxCell id="jyqEJ0qr-PdA9ATOnDI3-237" style="edgeStyle=orthogonalEdgeStyle;rounded=0;orthogonalLoop=1;jettySize=auto;html=1;entryX=1;entryY=0.5;entryDx=0;entryDy=0;" parent="1" source="jyqEJ0qr-PdA9ATOnDI3-164" target="jyqEJ0qr-PdA9ATOnDI3-66" edge="1">
          <mxGeometry relative="1" as="geometry" />
        </mxCell>
        <mxCell id="jyqEJ0qr-PdA9ATOnDI3-164" value="Cosmo" style="rounded=0;whiteSpace=wrap;html=1;fontStyle=1" parent="1" vertex="1">
          <mxGeometry x="1930" y="-900" width="120" height="60" as="geometry" />
        </mxCell>
        <mxCell id="jyqEJ0qr-PdA9ATOnDI3-169" value="" style="edgeStyle=orthogonalEdgeStyle;rounded=0;orthogonalLoop=1;jettySize=auto;html=1;" parent="1" source="jyqEJ0qr-PdA9ATOnDI3-165" target="jyqEJ0qr-PdA9ATOnDI3-65" edge="1">
          <mxGeometry relative="1" as="geometry" />
        </mxCell>
        <mxCell id="HmtH44mMOcLNcZPi784R-3" style="edgeStyle=orthogonalEdgeStyle;rounded=0;orthogonalLoop=1;jettySize=auto;html=1;entryX=1;entryY=0.5;entryDx=0;entryDy=0;" parent="1" source="jyqEJ0qr-PdA9ATOnDI3-165" target="jyqEJ0qr-PdA9ATOnDI3-67" edge="1">
          <mxGeometry relative="1" as="geometry" />
        </mxCell>
        <mxCell id="jyqEJ0qr-PdA9ATOnDI3-165" value="Gaspard" style="rounded=0;whiteSpace=wrap;html=1;fontStyle=1" parent="1" vertex="1">
          <mxGeometry x="1930" y="-980" width="120" height="60" as="geometry" />
        </mxCell>
        <mxCell id="HmtH44mMOcLNcZPi784R-22" style="edgeStyle=orthogonalEdgeStyle;rounded=0;orthogonalLoop=1;jettySize=auto;html=1;entryX=1;entryY=0.5;entryDx=0;entryDy=0;" parent="1" source="jyqEJ0qr-PdA9ATOnDI3-166" target="jyqEJ0qr-PdA9ATOnDI3-68" edge="1">
          <mxGeometry relative="1" as="geometry">
            <mxPoint x="1860" y="-740" as="targetPoint" />
          </mxGeometry>
        </mxCell>
        <mxCell id="jyqEJ0qr-PdA9ATOnDI3-166" value="&lt;b&gt;Lou&lt;/b&gt;" style="rounded=0;whiteSpace=wrap;html=1;" parent="1" vertex="1">
          <mxGeometry x="1930" y="-830" width="120" height="60" as="geometry" />
        </mxCell>
        <mxCell id="HmtH44mMOcLNcZPi784R-21" style="edgeStyle=orthogonalEdgeStyle;rounded=0;orthogonalLoop=1;jettySize=auto;html=1;entryX=1;entryY=0.5;entryDx=0;entryDy=0;" parent="1" source="jyqEJ0qr-PdA9ATOnDI3-167" target="jyqEJ0qr-PdA9ATOnDI3-68" edge="1">
          <mxGeometry relative="1" as="geometry" />
        </mxCell>
        <mxCell id="my80pRcHLwecYGXLhU4Q-6" style="edgeStyle=orthogonalEdgeStyle;rounded=0;orthogonalLoop=1;jettySize=auto;html=1;exitX=0;exitY=0.75;exitDx=0;exitDy=0;entryX=1;entryY=0.75;entryDx=0;entryDy=0;fillColor=#f5f5f5;strokeColor=#666666;" parent="1" source="jyqEJ0qr-PdA9ATOnDI3-167" target="jyqEJ0qr-PdA9ATOnDI3-69" edge="1">
          <mxGeometry relative="1" as="geometry" />
        </mxCell>
        <mxCell id="jyqEJ0qr-PdA9ATOnDI3-167" value="&lt;b&gt;Matthew&lt;/b&gt;" style="rounded=0;whiteSpace=wrap;html=1;" parent="1" vertex="1">
          <mxGeometry x="1930" y="-770" width="120" height="60" as="geometry" />
        </mxCell>
        <mxCell id="jyqEJ0qr-PdA9ATOnDI3-168" value="5e participant ?" style="rounded=0;whiteSpace=wrap;html=1;fontStyle=1;" parent="1" vertex="1">
          <mxGeometry x="2120" y="-1010" width="120" height="60" as="geometry" />
        </mxCell>
        <mxCell id="jyqEJ0qr-PdA9ATOnDI3-170" value="&lt;div&gt;Tâches actives&lt;/div&gt;" style="shape=trapezoid;perimeter=trapezoidPerimeter;whiteSpace=wrap;html=1;fixedSize=1;" parent="1" vertex="1">
          <mxGeometry x="1740" y="-1080" width="120" height="60" as="geometry" />
        </mxCell>
        <mxCell id="jyqEJ0qr-PdA9ATOnDI3-171" value="Attribués" style="shape=trapezoid;perimeter=trapezoidPerimeter;whiteSpace=wrap;html=1;fixedSize=1;" parent="1" vertex="1">
          <mxGeometry x="1930" y="-1080" width="120" height="60" as="geometry" />
        </mxCell>
        <mxCell id="jyqEJ0qr-PdA9ATOnDI3-172" value="Libres" style="shape=trapezoid;perimeter=trapezoidPerimeter;whiteSpace=wrap;html=1;fixedSize=1;" parent="1" vertex="1">
          <mxGeometry x="2120" y="-1080" width="120" height="60" as="geometry" />
        </mxCell>
        <mxCell id="jyqEJ0qr-PdA9ATOnDI3-173" value="1" style="rounded=1;whiteSpace=wrap;html=1;" parent="1" vertex="1">
          <mxGeometry x="2300" y="-309" width="60" height="60" as="geometry" />
        </mxCell>
        <mxCell id="jyqEJ0qr-PdA9ATOnDI3-174" value="2" style="rounded=1;whiteSpace=wrap;html=1;" parent="1" vertex="1">
          <mxGeometry x="2360" y="-309" width="60" height="60" as="geometry" />
        </mxCell>
        <mxCell id="jyqEJ0qr-PdA9ATOnDI3-175" value="3" style="rounded=1;whiteSpace=wrap;html=1;" parent="1" vertex="1">
          <mxGeometry x="2000" y="-249" width="60" height="60" as="geometry" />
        </mxCell>
        <mxCell id="jyqEJ0qr-PdA9ATOnDI3-176" value="Février" style="shape=process;whiteSpace=wrap;html=1;backgroundOutline=1;fillColor=#647687;strokeColor=#314354;fontColor=#ffffff;" parent="1" vertex="1">
          <mxGeometry x="2000" y="-380" width="420" height="60" as="geometry" />
        </mxCell>
        <mxCell id="jyqEJ0qr-PdA9ATOnDI3-177" value="5" style="rounded=1;whiteSpace=wrap;html=1;" parent="1" vertex="1">
          <mxGeometry x="2120" y="-249" width="60" height="60" as="geometry" />
        </mxCell>
        <mxCell id="jyqEJ0qr-PdA9ATOnDI3-178" value="6" style="rounded=1;whiteSpace=wrap;html=1;" parent="1" vertex="1">
          <mxGeometry x="2180" y="-249" width="60" height="60" as="geometry" />
        </mxCell>
        <mxCell id="jyqEJ0qr-PdA9ATOnDI3-179" value="7" style="rounded=1;whiteSpace=wrap;html=1;" parent="1" vertex="1">
          <mxGeometry x="2240" y="-249" width="60" height="60" as="geometry" />
        </mxCell>
        <mxCell id="jyqEJ0qr-PdA9ATOnDI3-180" value="8" style="rounded=1;whiteSpace=wrap;html=1;" parent="1" vertex="1">
          <mxGeometry x="2300" y="-249" width="60" height="60" as="geometry" />
        </mxCell>
        <mxCell id="jyqEJ0qr-PdA9ATOnDI3-181" value="9" style="rounded=1;whiteSpace=wrap;html=1;" parent="1" vertex="1">
          <mxGeometry x="2360" y="-249" width="60" height="60" as="geometry" />
        </mxCell>
        <mxCell id="jyqEJ0qr-PdA9ATOnDI3-182" value="10" style="rounded=1;whiteSpace=wrap;html=1;" parent="1" vertex="1">
          <mxGeometry x="2000" y="-189" width="60" height="60" as="geometry" />
        </mxCell>
        <mxCell id="jyqEJ0qr-PdA9ATOnDI3-183" value="13" style="rounded=1;whiteSpace=wrap;html=1;" parent="1" vertex="1">
          <mxGeometry x="2180" y="-189" width="60" height="60" as="geometry" />
        </mxCell>
        <mxCell id="jyqEJ0qr-PdA9ATOnDI3-184" value="14" style="rounded=1;whiteSpace=wrap;html=1;" parent="1" vertex="1">
          <mxGeometry x="2240" y="-189" width="60" height="60" as="geometry" />
        </mxCell>
        <mxCell id="jyqEJ0qr-PdA9ATOnDI3-185" value="15" style="rounded=1;whiteSpace=wrap;html=1;" parent="1" vertex="1">
          <mxGeometry x="2300" y="-189" width="60" height="60" as="geometry" />
        </mxCell>
        <mxCell id="jyqEJ0qr-PdA9ATOnDI3-186" value="4" style="rounded=1;whiteSpace=wrap;html=1;" parent="1" vertex="1">
          <mxGeometry x="2060" y="-249" width="60" height="60" as="geometry" />
        </mxCell>
        <mxCell id="jyqEJ0qr-PdA9ATOnDI3-187" value="16" style="rounded=1;whiteSpace=wrap;html=1;" parent="1" vertex="1">
          <mxGeometry x="2360" y="-189" width="60" height="60" as="geometry" />
        </mxCell>
        <mxCell id="jyqEJ0qr-PdA9ATOnDI3-188" value="17" style="rounded=1;whiteSpace=wrap;html=1;" parent="1" vertex="1">
          <mxGeometry x="2000" y="-129" width="60" height="60" as="geometry" />
        </mxCell>
        <mxCell id="jyqEJ0qr-PdA9ATOnDI3-189" value="11" style="rounded=1;whiteSpace=wrap;html=1;" parent="1" vertex="1">
          <mxGeometry x="2060" y="-189" width="60" height="60" as="geometry" />
        </mxCell>
        <mxCell id="jyqEJ0qr-PdA9ATOnDI3-190" value="12" style="rounded=1;whiteSpace=wrap;html=1;" parent="1" vertex="1">
          <mxGeometry x="2120" y="-189" width="60" height="60" as="geometry" />
        </mxCell>
        <mxCell id="jyqEJ0qr-PdA9ATOnDI3-191" value="20" style="rounded=1;whiteSpace=wrap;html=1;fillColor=#ffcc99;strokeColor=#36393d;" parent="1" vertex="1">
          <mxGeometry x="2180" y="-128" width="60" height="60" as="geometry" />
        </mxCell>
        <mxCell id="jyqEJ0qr-PdA9ATOnDI3-192" value="21" style="rounded=1;whiteSpace=wrap;html=1;" parent="1" vertex="1">
          <mxGeometry x="2240" y="-128" width="60" height="60" as="geometry" />
        </mxCell>
        <mxCell id="jyqEJ0qr-PdA9ATOnDI3-193" value="22" style="rounded=1;whiteSpace=wrap;html=1;fillColor=#eeeeee;strokeColor=#36393d;" parent="1" vertex="1">
          <mxGeometry x="2300" y="-128" width="60" height="60" as="geometry" />
        </mxCell>
        <mxCell id="jyqEJ0qr-PdA9ATOnDI3-194" value="23" style="rounded=1;whiteSpace=wrap;html=1;fillColor=#eeeeee;strokeColor=#36393d;" parent="1" vertex="1">
          <mxGeometry x="2360" y="-128" width="60" height="60" as="geometry" />
        </mxCell>
        <mxCell id="jyqEJ0qr-PdA9ATOnDI3-195" value="24" style="rounded=1;whiteSpace=wrap;html=1;fillColor=#eeeeee;strokeColor=#36393d;" parent="1" vertex="1">
          <mxGeometry x="2000" y="-68" width="60" height="60" as="geometry" />
        </mxCell>
        <mxCell id="jyqEJ0qr-PdA9ATOnDI3-196" value="18" style="rounded=1;whiteSpace=wrap;html=1;" parent="1" vertex="1">
          <mxGeometry x="2060" y="-128" width="60" height="60" as="geometry" />
        </mxCell>
        <mxCell id="jyqEJ0qr-PdA9ATOnDI3-197" value="19" style="rounded=1;whiteSpace=wrap;html=1;" parent="1" vertex="1">
          <mxGeometry x="2120" y="-128" width="60" height="60" as="geometry" />
        </mxCell>
        <mxCell id="jyqEJ0qr-PdA9ATOnDI3-198" value="25" style="rounded=1;whiteSpace=wrap;html=1;fillColor=#eeeeee;strokeColor=#36393d;" parent="1" vertex="1">
          <mxGeometry x="2060" y="-68" width="60" height="60" as="geometry" />
        </mxCell>
        <mxCell id="jyqEJ0qr-PdA9ATOnDI3-199" value="26" style="rounded=1;whiteSpace=wrap;html=1;fillColor=#eeeeee;strokeColor=#36393d;" parent="1" vertex="1">
          <mxGeometry x="2120" y="-68" width="60" height="60" as="geometry" />
        </mxCell>
        <mxCell id="jyqEJ0qr-PdA9ATOnDI3-201" value="28" style="rounded=1;whiteSpace=wrap;html=1;fillColor=#eeeeee;strokeColor=#36393d;" parent="1" vertex="1">
          <mxGeometry x="2240" y="-68" width="60" height="60" as="geometry" />
        </mxCell>
        <mxCell id="jyqEJ0qr-PdA9ATOnDI3-203" value="27" style="rounded=1;whiteSpace=wrap;html=1;fillColor=#eeeeee;strokeColor=#36393d;" parent="1" vertex="1">
          <mxGeometry x="2180" y="-68" width="60" height="60" as="geometry" />
        </mxCell>
        <mxCell id="jyqEJ0qr-PdA9ATOnDI3-204" value="RENDU" style="rounded=0;whiteSpace=wrap;html=1;fillColor=#f8cecc;strokeColor=#b85450;fontStyle=1;gradientColor=#ea6b66;" parent="1" vertex="1">
          <mxGeometry x="1740" y="-570" width="120" height="60" as="geometry" />
        </mxCell>
        <mxCell id="jyqEJ0qr-PdA9ATOnDI3-205" value="1" style="rounded=1;whiteSpace=wrap;html=1;fillColor=#eeeeee;strokeColor=#36393d;" parent="1" vertex="1">
          <mxGeometry x="2305" y="143" width="60" height="60" as="geometry" />
        </mxCell>
        <mxCell id="jyqEJ0qr-PdA9ATOnDI3-206" value="2" style="rounded=1;whiteSpace=wrap;html=1;fillColor=#eeeeee;strokeColor=#36393d;" parent="1" vertex="1">
          <mxGeometry x="2365" y="143" width="60" height="60" as="geometry" />
        </mxCell>
        <mxCell id="jyqEJ0qr-PdA9ATOnDI3-207" value="3" style="rounded=1;whiteSpace=wrap;html=1;fillColor=#eeeeee;strokeColor=#36393d;" parent="1" vertex="1">
          <mxGeometry x="2005" y="203" width="60" height="60" as="geometry" />
        </mxCell>
        <mxCell id="jyqEJ0qr-PdA9ATOnDI3-208" value="Mars" style="shape=process;whiteSpace=wrap;html=1;backgroundOutline=1;fillColor=#647687;strokeColor=#314354;fontColor=#ffffff;" parent="1" vertex="1">
          <mxGeometry x="2005" y="72" width="420" height="60" as="geometry" />
        </mxCell>
        <mxCell id="jyqEJ0qr-PdA9ATOnDI3-209" value="5" style="rounded=1;whiteSpace=wrap;html=1;fillColor=#eeeeee;strokeColor=#36393d;" parent="1" vertex="1">
          <mxGeometry x="2125" y="203" width="60" height="60" as="geometry" />
        </mxCell>
        <mxCell id="jyqEJ0qr-PdA9ATOnDI3-210" value="6" style="rounded=1;whiteSpace=wrap;html=1;fillColor=#eeeeee;strokeColor=#36393d;" parent="1" vertex="1">
          <mxGeometry x="2185" y="203" width="60" height="60" as="geometry" />
        </mxCell>
        <mxCell id="jyqEJ0qr-PdA9ATOnDI3-211" value="7" style="rounded=1;whiteSpace=wrap;html=1;fillColor=#eeeeee;strokeColor=#36393d;" parent="1" vertex="1">
          <mxGeometry x="2245" y="203" width="60" height="60" as="geometry" />
        </mxCell>
        <mxCell id="jyqEJ0qr-PdA9ATOnDI3-212" value="8" style="rounded=1;whiteSpace=wrap;html=1;fillColor=#eeeeee;strokeColor=#36393d;" parent="1" vertex="1">
          <mxGeometry x="2305" y="203" width="60" height="60" as="geometry" />
        </mxCell>
        <mxCell id="jyqEJ0qr-PdA9ATOnDI3-213" value="9" style="rounded=1;whiteSpace=wrap;html=1;fillColor=#eeeeee;strokeColor=#36393d;" parent="1" vertex="1">
          <mxGeometry x="2365" y="203" width="60" height="60" as="geometry" />
        </mxCell>
        <mxCell id="jyqEJ0qr-PdA9ATOnDI3-214" value="10" style="rounded=1;whiteSpace=wrap;html=1;" parent="1" vertex="1">
          <mxGeometry x="2005" y="263" width="60" height="60" as="geometry" />
        </mxCell>
        <mxCell id="jyqEJ0qr-PdA9ATOnDI3-215" value="13" style="rounded=1;whiteSpace=wrap;html=1;" parent="1" vertex="1">
          <mxGeometry x="2185" y="263" width="60" height="60" as="geometry" />
        </mxCell>
        <mxCell id="jyqEJ0qr-PdA9ATOnDI3-216" value="14" style="rounded=1;whiteSpace=wrap;html=1;" parent="1" vertex="1">
          <mxGeometry x="2245" y="263" width="60" height="60" as="geometry" />
        </mxCell>
        <mxCell id="jyqEJ0qr-PdA9ATOnDI3-217" value="15" style="rounded=1;whiteSpace=wrap;html=1;" parent="1" vertex="1">
          <mxGeometry x="2305" y="263" width="60" height="60" as="geometry" />
        </mxCell>
        <mxCell id="jyqEJ0qr-PdA9ATOnDI3-218" value="4" style="rounded=1;whiteSpace=wrap;html=1;fillColor=#eeeeee;strokeColor=#36393d;" parent="1" vertex="1">
          <mxGeometry x="2065" y="203" width="60" height="60" as="geometry" />
        </mxCell>
        <mxCell id="jyqEJ0qr-PdA9ATOnDI3-219" value="16" style="rounded=1;whiteSpace=wrap;html=1;" parent="1" vertex="1">
          <mxGeometry x="2365" y="263" width="60" height="60" as="geometry" />
        </mxCell>
        <mxCell id="jyqEJ0qr-PdA9ATOnDI3-220" value="17" style="rounded=1;whiteSpace=wrap;html=1;" parent="1" vertex="1">
          <mxGeometry x="2005" y="323" width="60" height="60" as="geometry" />
        </mxCell>
        <mxCell id="jyqEJ0qr-PdA9ATOnDI3-221" value="11" style="rounded=1;whiteSpace=wrap;html=1;" parent="1" vertex="1">
          <mxGeometry x="2065" y="263" width="60" height="60" as="geometry" />
        </mxCell>
        <mxCell id="jyqEJ0qr-PdA9ATOnDI3-222" value="12" style="rounded=1;whiteSpace=wrap;html=1;" parent="1" vertex="1">
          <mxGeometry x="2125" y="263" width="60" height="60" as="geometry" />
        </mxCell>
        <mxCell id="jyqEJ0qr-PdA9ATOnDI3-223" value="20" style="rounded=1;whiteSpace=wrap;html=1;" parent="1" vertex="1">
          <mxGeometry x="2185" y="324" width="60" height="60" as="geometry" />
        </mxCell>
        <mxCell id="jyqEJ0qr-PdA9ATOnDI3-224" value="21" style="rounded=1;whiteSpace=wrap;html=1;" parent="1" vertex="1">
          <mxGeometry x="2245" y="324" width="60" height="60" as="geometry" />
        </mxCell>
        <mxCell id="jyqEJ0qr-PdA9ATOnDI3-225" value="22" style="rounded=1;whiteSpace=wrap;html=1;" parent="1" vertex="1">
          <mxGeometry x="2305" y="324" width="60" height="60" as="geometry" />
        </mxCell>
        <mxCell id="jyqEJ0qr-PdA9ATOnDI3-226" value="23" style="rounded=1;whiteSpace=wrap;html=1;" parent="1" vertex="1">
          <mxGeometry x="2365" y="324" width="60" height="60" as="geometry" />
        </mxCell>
        <mxCell id="jyqEJ0qr-PdA9ATOnDI3-227" value="24" style="rounded=1;whiteSpace=wrap;html=1;" parent="1" vertex="1">
          <mxGeometry x="2005" y="384" width="60" height="60" as="geometry" />
        </mxCell>
        <mxCell id="jyqEJ0qr-PdA9ATOnDI3-228" value="18" style="rounded=1;whiteSpace=wrap;html=1;" parent="1" vertex="1">
          <mxGeometry x="2065" y="324" width="60" height="60" as="geometry" />
        </mxCell>
        <mxCell id="jyqEJ0qr-PdA9ATOnDI3-229" value="19" style="rounded=1;whiteSpace=wrap;html=1;" parent="1" vertex="1">
          <mxGeometry x="2125" y="324" width="60" height="60" as="geometry" />
        </mxCell>
        <mxCell id="jyqEJ0qr-PdA9ATOnDI3-230" value="25" style="rounded=1;whiteSpace=wrap;html=1;" parent="1" vertex="1">
          <mxGeometry x="2065" y="384" width="60" height="60" as="geometry" />
        </mxCell>
        <mxCell id="jyqEJ0qr-PdA9ATOnDI3-231" value="26" style="rounded=1;whiteSpace=wrap;html=1;" parent="1" vertex="1">
          <mxGeometry x="2125" y="384" width="60" height="60" as="geometry" />
        </mxCell>
        <mxCell id="jyqEJ0qr-PdA9ATOnDI3-232" value="28" style="rounded=1;whiteSpace=wrap;html=1;" parent="1" vertex="1">
          <mxGeometry x="2245" y="384" width="60" height="60" as="geometry" />
        </mxCell>
        <mxCell id="jyqEJ0qr-PdA9ATOnDI3-233" value="27" style="rounded=1;whiteSpace=wrap;html=1;" parent="1" vertex="1">
          <mxGeometry x="2185" y="384" width="60" height="60" as="geometry" />
        </mxCell>
        <mxCell id="jyqEJ0qr-PdA9ATOnDI3-234" value="30" style="rounded=1;whiteSpace=wrap;html=1;" parent="1" vertex="1">
          <mxGeometry x="2365" y="384" width="60" height="60" as="geometry" />
        </mxCell>
        <mxCell id="jyqEJ0qr-PdA9ATOnDI3-235" value="31" style="rounded=1;whiteSpace=wrap;html=1;fillColor=#ffcc99;strokeColor=#36393d;" parent="1" vertex="1">
          <mxGeometry x="2005" y="444" width="60" height="60" as="geometry" />
        </mxCell>
        <mxCell id="jyqEJ0qr-PdA9ATOnDI3-236" value="29" style="rounded=1;whiteSpace=wrap;html=1;" parent="1" vertex="1">
          <mxGeometry x="2305" y="384" width="60" height="60" as="geometry" />
        </mxCell>
        <mxCell id="jyqEJ0qr-PdA9ATOnDI3-238" value="&lt;div&gt;Tâches&lt;/div&gt;&lt;div&gt;en attente&lt;br&gt;&lt;/div&gt;" style="shape=trapezoid;perimeter=trapezoidPerimeter;whiteSpace=wrap;html=1;fixedSize=1;" parent="1" vertex="1">
          <mxGeometry x="1550" y="-1080" width="120" height="60" as="geometry" />
        </mxCell>
        <mxCell id="jyqEJ0qr-PdA9ATOnDI3-239" value="&lt;div&gt;Tests et chasse&lt;/div&gt;&lt;div&gt;aux bugs&lt;br&gt;&lt;/div&gt;" style="rounded=0;whiteSpace=wrap;html=1;fillColor=#f5f5f5;fontColor=#333333;strokeColor=#666666;" parent="1" vertex="1">
          <mxGeometry x="900" y="-999" width="120" height="60" as="geometry" />
        </mxCell>
        <mxCell id="jyqEJ0qr-PdA9ATOnDI3-240" value="&lt;div&gt;Textures&lt;/div&gt;- monde" style="rounded=0;whiteSpace=wrap;html=1;fillColor=#f5f5f5;fontColor=#333333;strokeColor=#666666;" parent="1" vertex="1">
          <mxGeometry x="1550" y="-1000" width="120" height="60" as="geometry" />
        </mxCell>
        <mxCell id="jyqEJ0qr-PdA9ATOnDI3-242" value="&lt;div&gt;Animation du&lt;/div&gt;&lt;div&gt;personnage&lt;br&gt;&lt;/div&gt;" style="rounded=0;whiteSpace=wrap;html=1;fillColor=#f5f5f5;fontColor=#333333;strokeColor=#666666;" parent="1" vertex="1">
          <mxGeometry x="1290" y="-939" width="120" height="60" as="geometry" />
        </mxCell>
        <mxCell id="jyqEJ0qr-PdA9ATOnDI3-243" value="Cinématiques" style="rounded=0;whiteSpace=wrap;html=1;fillColor=#ffe6cc;strokeColor=#d79b00;" parent="1" vertex="1">
          <mxGeometry x="1290" y="-999" width="120" height="60" as="geometry" />
        </mxCell>
        <mxCell id="jyqEJ0qr-PdA9ATOnDI3-245" value="&lt;div&gt;Textures&lt;/div&gt;- personnage" style="rounded=0;whiteSpace=wrap;html=1;fillColor=#ffe6cc;strokeColor=#d79b00;" parent="1" vertex="1">
          <mxGeometry x="1550" y="-940" width="120" height="60" as="geometry" />
        </mxCell>
        <mxCell id="jyqEJ0qr-PdA9ATOnDI3-247" value="&lt;div&gt;(opt) Textures&lt;/div&gt;- objets" style="rounded=0;whiteSpace=wrap;html=1;fillColor=#f5f5f5;fontColor=#333333;strokeColor=#666666;" parent="1" vertex="1">
          <mxGeometry x="1550" y="-761" width="120" height="60" as="geometry" />
        </mxCell>
        <mxCell id="jyqEJ0qr-PdA9ATOnDI3-248" value="&lt;div&gt;Textures&lt;/div&gt;- landmarks" style="rounded=0;whiteSpace=wrap;html=1;fillColor=#f5f5f5;fontColor=#333333;strokeColor=#666666;" parent="1" vertex="1">
          <mxGeometry x="1550" y="-880" width="120" height="60" as="geometry" />
        </mxCell>
        <mxCell id="jyqEJ0qr-PdA9ATOnDI3-249" value="&lt;div&gt;Textures&lt;/div&gt;- capsule" style="rounded=0;whiteSpace=wrap;html=1;fillColor=#f5f5f5;fontColor=#333333;strokeColor=#666666;" parent="1" vertex="1">
          <mxGeometry x="1550" y="-821" width="120" height="60" as="geometry" />
        </mxCell>
        <mxCell id="jyqEJ0qr-PdA9ATOnDI3-250" value="&lt;div&gt;Modèles 3D&lt;br&gt;&lt;/div&gt;- monde" style="rounded=0;whiteSpace=wrap;html=1;fillColor=#f5f5f5;fontColor=#333333;strokeColor=#666666;" parent="1" vertex="1">
          <mxGeometry x="1420" y="-999" width="120" height="60" as="geometry" />
        </mxCell>
        <mxCell id="jyqEJ0qr-PdA9ATOnDI3-251" value="&lt;div&gt;&lt;div&gt;Modèles 3D&lt;br&gt;&lt;/div&gt;&lt;/div&gt;- personnage" style="rounded=0;whiteSpace=wrap;html=1;fillColor=#ffe6cc;strokeColor=#d79b00;" parent="1" vertex="1">
          <mxGeometry x="1420" y="-939" width="120" height="60" as="geometry" />
        </mxCell>
        <mxCell id="jyqEJ0qr-PdA9ATOnDI3-252" value="&lt;div&gt;(opt) Modèles 3D&lt;br&gt;&lt;/div&gt;- objets" style="rounded=0;whiteSpace=wrap;html=1;fillColor=#f5f5f5;fontColor=#333333;strokeColor=#666666;" parent="1" vertex="1">
          <mxGeometry x="1420" y="-760" width="120" height="60" as="geometry" />
        </mxCell>
        <mxCell id="jyqEJ0qr-PdA9ATOnDI3-253" value="&lt;div&gt;&lt;div&gt;Modèles 3D&lt;br&gt;&lt;/div&gt;&lt;/div&gt;- landmarks" style="rounded=0;whiteSpace=wrap;html=1;fillColor=#f5f5f5;fontColor=#333333;strokeColor=#666666;" parent="1" vertex="1">
          <mxGeometry x="1420" y="-879" width="120" height="60" as="geometry" />
        </mxCell>
        <mxCell id="jyqEJ0qr-PdA9ATOnDI3-254" value="&lt;div&gt;&lt;div&gt;Modèles 3D&lt;br&gt;&lt;/div&gt;&lt;/div&gt;- capsule" style="rounded=0;whiteSpace=wrap;html=1;fillColor=#f5f5f5;fontColor=#333333;strokeColor=#666666;" parent="1" vertex="1">
          <mxGeometry x="1420" y="-820" width="120" height="60" as="geometry" />
        </mxCell>
        <mxCell id="jyqEJ0qr-PdA9ATOnDI3-256" value="README" style="rounded=0;whiteSpace=wrap;html=1;fillColor=#f5f5f5;fontColor=#333333;strokeColor=#666666;" parent="1" vertex="1">
          <mxGeometry x="1030" y="-999" width="120" height="60" as="geometry" />
        </mxCell>
        <mxCell id="jyqEJ0qr-PdA9ATOnDI3-257" value="&lt;div&gt;Vidéo de&lt;/div&gt;&lt;div&gt;présentation&lt;/div&gt;" style="rounded=0;whiteSpace=wrap;html=1;fillColor=#f5f5f5;fontColor=#333333;strokeColor=#666666;" parent="1" vertex="1">
          <mxGeometry x="1030" y="-939" width="120" height="60" as="geometry" />
        </mxCell>
        <mxCell id="jyqEJ0qr-PdA9ATOnDI3-258" value="&lt;div&gt;PDF de&lt;/div&gt;&lt;div&gt;présentation&lt;/div&gt;" style="rounded=0;whiteSpace=wrap;html=1;fillColor=#f5f5f5;fontColor=#333333;strokeColor=#666666;" parent="1" vertex="1">
          <mxGeometry x="1030" y="-879" width="120" height="60" as="geometry" />
        </mxCell>
        <mxCell id="jyqEJ0qr-PdA9ATOnDI3-259" value="Musiques" style="rounded=0;whiteSpace=wrap;html=1;" parent="1" vertex="1">
          <mxGeometry x="1290" y="-879" width="120" height="60" as="geometry" />
        </mxCell>
        <mxCell id="jyqEJ0qr-PdA9ATOnDI3-260" value="Moteur 3D" style="rounded=0;whiteSpace=wrap;html=1;fillColor=#cce5ff;strokeColor=#36393d;fontStyle=0" parent="1" vertex="1">
          <mxGeometry x="1120" y="-310" width="120" height="60" as="geometry" />
        </mxCell>
        <mxCell id="jyqEJ0qr-PdA9ATOnDI3-261" value="&lt;div&gt;Génération du&lt;/div&gt;&lt;div&gt;terrain&lt;br&gt;&lt;/div&gt;" style="rounded=0;whiteSpace=wrap;html=1;fillColor=#cdeb8b;strokeColor=#36393d;fontStyle=0" parent="1" vertex="1">
          <mxGeometry x="1120" y="-250" width="120" height="60" as="geometry" />
        </mxCell>
        <mxCell id="jyqEJ0qr-PdA9ATOnDI3-262" value="&lt;div&gt;Raw 3D models&lt;/div&gt;(tests capa moteur)" style="rounded=0;whiteSpace=wrap;html=1;fillColor=#ffff88;strokeColor=#36393d;fontStyle=0" parent="1" vertex="1">
          <mxGeometry x="1120" y="-190" width="120" height="60" as="geometry" />
        </mxCell>
        <mxCell id="jyqEJ0qr-PdA9ATOnDI3-263" value="&lt;div&gt;Cube-Morpion&lt;/div&gt;&lt;div&gt;pour les portes&lt;br&gt;&lt;/div&gt;" style="rounded=0;whiteSpace=wrap;html=1;fillColor=#ffcccc;strokeColor=#36393d;fontStyle=0" parent="1" vertex="1">
          <mxGeometry x="1120" y="-130" width="120" height="60" as="geometry" />
        </mxCell>
        <mxCell id="jyqEJ0qr-PdA9ATOnDI3-265" value="&lt;div&gt;Tâches&lt;/div&gt;&lt;div&gt;du mois&lt;br&gt;&lt;/div&gt;" style="shape=trapezoid;perimeter=trapezoidPerimeter;whiteSpace=wrap;html=1;fixedSize=1;" parent="1" vertex="1">
          <mxGeometry x="1120" y="-380" width="120" height="60" as="geometry" />
        </mxCell>
        <mxCell id="jyqEJ0qr-PdA9ATOnDI3-267" value="&lt;div&gt;Génération du&lt;/div&gt;&lt;div&gt;terrain&lt;br&gt;&lt;/div&gt;" style="rounded=0;whiteSpace=wrap;html=1;fillColor=#cdeb8b;strokeColor=#36393d;fontStyle=0" parent="1" vertex="1">
          <mxGeometry x="1120" y="143" width="120" height="60" as="geometry" />
        </mxCell>
        <mxCell id="jyqEJ0qr-PdA9ATOnDI3-268" value="&lt;div&gt;Raw 3D models&lt;/div&gt;(tests capa moteur)" style="rounded=0;whiteSpace=wrap;html=1;fillColor=#ffff88;strokeColor=#36393d;fontStyle=0" parent="1" vertex="1">
          <mxGeometry x="1120" y="203" width="120" height="60" as="geometry" />
        </mxCell>
        <mxCell id="jyqEJ0qr-PdA9ATOnDI3-271" value="&lt;div&gt;Tâches&lt;/div&gt;&lt;div&gt;du mois&lt;br&gt;&lt;/div&gt;" style="shape=trapezoid;perimeter=trapezoidPerimeter;whiteSpace=wrap;html=1;fixedSize=1;" parent="1" vertex="1">
          <mxGeometry x="1120" y="72" width="120" height="60" as="geometry" />
        </mxCell>
        <mxCell id="jyqEJ0qr-PdA9ATOnDI3-273" value="&lt;div&gt;Génération du&lt;/div&gt;&lt;div&gt;terrain&lt;br&gt;&lt;/div&gt;" style="rounded=0;whiteSpace=wrap;html=1;fillColor=#cdeb8b;strokeColor=#36393d;fontStyle=0" parent="1" vertex="1">
          <mxGeometry x="1800" y="-250" width="120" height="60" as="geometry" />
        </mxCell>
        <mxCell id="jyqEJ0qr-PdA9ATOnDI3-274" value="&lt;div&gt;Model 3D&lt;/div&gt;&lt;div&gt;personnage&lt;br&gt;&lt;/div&gt;" style="rounded=0;whiteSpace=wrap;html=1;fillColor=#ffff88;strokeColor=#36393d;fontStyle=0" parent="1" vertex="1">
          <mxGeometry x="1800" y="-190" width="120" height="60" as="geometry" />
        </mxCell>
        <mxCell id="jyqEJ0qr-PdA9ATOnDI3-275" value="..." style="rounded=0;whiteSpace=wrap;html=1;fillColor=#ffcccc;strokeColor=#36393d;fontStyle=0" parent="1" vertex="1">
          <mxGeometry x="1800" y="-130" width="120" height="60" as="geometry" />
        </mxCell>
        <mxCell id="jyqEJ0qr-PdA9ATOnDI3-276" value="..." style="rounded=0;whiteSpace=wrap;html=1;fontStyle=0;fillColor=#f9f7ed;strokeColor=#36393d;" parent="1" vertex="1">
          <mxGeometry x="1800" y="-70" width="120" height="60" as="geometry" />
        </mxCell>
        <mxCell id="jyqEJ0qr-PdA9ATOnDI3-277" value="&lt;div&gt;Tâches&lt;/div&gt;&lt;div&gt;du mois&lt;br&gt;&lt;/div&gt;" style="shape=trapezoid;perimeter=trapezoidPerimeter;whiteSpace=wrap;html=1;fixedSize=1;" parent="1" vertex="1">
          <mxGeometry x="1800" y="-380" width="120" height="60" as="geometry" />
        </mxCell>
        <mxCell id="jyqEJ0qr-PdA9ATOnDI3-278" value="..." style="rounded=0;whiteSpace=wrap;html=1;fillColor=#cce5ff;strokeColor=#36393d;fontStyle=0" parent="1" vertex="1">
          <mxGeometry x="1800" y="142" width="120" height="60" as="geometry" />
        </mxCell>
        <mxCell id="jyqEJ0qr-PdA9ATOnDI3-279" value="..." style="rounded=0;whiteSpace=wrap;html=1;fillColor=#cdeb8b;strokeColor=#36393d;fontStyle=0" parent="1" vertex="1">
          <mxGeometry x="1800" y="202" width="120" height="60" as="geometry" />
        </mxCell>
        <mxCell id="jyqEJ0qr-PdA9ATOnDI3-280" value="..." style="rounded=0;whiteSpace=wrap;html=1;fillColor=#ffff88;strokeColor=#36393d;fontStyle=0" parent="1" vertex="1">
          <mxGeometry x="1800" y="262" width="120" height="60" as="geometry" />
        </mxCell>
        <mxCell id="jyqEJ0qr-PdA9ATOnDI3-281" value="..." style="rounded=0;whiteSpace=wrap;html=1;fillColor=#ffcccc;strokeColor=#36393d;fontStyle=0" parent="1" vertex="1">
          <mxGeometry x="1800" y="322" width="120" height="60" as="geometry" />
        </mxCell>
        <mxCell id="jyqEJ0qr-PdA9ATOnDI3-282" value="..." style="rounded=0;whiteSpace=wrap;html=1;fontStyle=0;fillColor=#f9f7ed;strokeColor=#36393d;" parent="1" vertex="1">
          <mxGeometry x="1800" y="382" width="120" height="60" as="geometry" />
        </mxCell>
        <mxCell id="jyqEJ0qr-PdA9ATOnDI3-283" value="&lt;div&gt;Tâches&lt;/div&gt;&lt;div&gt;du mois&lt;br&gt;&lt;/div&gt;" style="shape=trapezoid;perimeter=trapezoidPerimeter;whiteSpace=wrap;html=1;fixedSize=1;" parent="1" vertex="1">
          <mxGeometry x="1800" y="72" width="120" height="60" as="geometry" />
        </mxCell>
        <mxCell id="jyqEJ0qr-PdA9ATOnDI3-284" value="..." style="rounded=0;whiteSpace=wrap;html=1;fillColor=#cce5ff;strokeColor=#36393d;fontStyle=0" parent="1" vertex="1">
          <mxGeometry x="2480" y="-310" width="120" height="60" as="geometry" />
        </mxCell>
        <mxCell id="jyqEJ0qr-PdA9ATOnDI3-285" value="..." style="rounded=0;whiteSpace=wrap;html=1;fillColor=#cdeb8b;strokeColor=#36393d;fontStyle=0" parent="1" vertex="1">
          <mxGeometry x="2480" y="-250" width="120" height="60" as="geometry" />
        </mxCell>
        <mxCell id="jyqEJ0qr-PdA9ATOnDI3-286" value="..." style="rounded=0;whiteSpace=wrap;html=1;fillColor=#ffff88;strokeColor=#36393d;fontStyle=0" parent="1" vertex="1">
          <mxGeometry x="2480" y="-190" width="120" height="60" as="geometry" />
        </mxCell>
        <mxCell id="jyqEJ0qr-PdA9ATOnDI3-287" value="..." style="rounded=0;whiteSpace=wrap;html=1;fillColor=#ffcccc;strokeColor=#36393d;fontStyle=0" parent="1" vertex="1">
          <mxGeometry x="2480" y="-130" width="120" height="60" as="geometry" />
        </mxCell>
        <mxCell id="jyqEJ0qr-PdA9ATOnDI3-288" value="..." style="rounded=0;whiteSpace=wrap;html=1;fontStyle=0;fillColor=#f9f7ed;strokeColor=#36393d;" parent="1" vertex="1">
          <mxGeometry x="2480" y="-70" width="120" height="60" as="geometry" />
        </mxCell>
        <mxCell id="jyqEJ0qr-PdA9ATOnDI3-289" value="&lt;div&gt;Tâches&lt;/div&gt;&lt;div&gt;du mois&lt;br&gt;&lt;/div&gt;" style="shape=trapezoid;perimeter=trapezoidPerimeter;whiteSpace=wrap;html=1;fixedSize=1;" parent="1" vertex="1">
          <mxGeometry x="2480" y="-380" width="120" height="60" as="geometry" />
        </mxCell>
        <mxCell id="jyqEJ0qr-PdA9ATOnDI3-290" value="..." style="rounded=0;whiteSpace=wrap;html=1;fillColor=#cce5ff;strokeColor=#36393d;fontStyle=0" parent="1" vertex="1">
          <mxGeometry x="2480" y="142" width="120" height="60" as="geometry" />
        </mxCell>
        <mxCell id="jyqEJ0qr-PdA9ATOnDI3-291" value="..." style="rounded=0;whiteSpace=wrap;html=1;fillColor=#cdeb8b;strokeColor=#36393d;fontStyle=0" parent="1" vertex="1">
          <mxGeometry x="2480" y="202" width="120" height="60" as="geometry" />
        </mxCell>
        <mxCell id="jyqEJ0qr-PdA9ATOnDI3-292" value="..." style="rounded=0;whiteSpace=wrap;html=1;fillColor=#ffff88;strokeColor=#36393d;fontStyle=0" parent="1" vertex="1">
          <mxGeometry x="2480" y="262" width="120" height="60" as="geometry" />
        </mxCell>
        <mxCell id="jyqEJ0qr-PdA9ATOnDI3-293" value="..." style="rounded=0;whiteSpace=wrap;html=1;fillColor=#ffcccc;strokeColor=#36393d;fontStyle=0" parent="1" vertex="1">
          <mxGeometry x="2480" y="322" width="120" height="60" as="geometry" />
        </mxCell>
        <mxCell id="jyqEJ0qr-PdA9ATOnDI3-294" value="..." style="rounded=0;whiteSpace=wrap;html=1;fontStyle=0;fillColor=#f9f7ed;strokeColor=#36393d;" parent="1" vertex="1">
          <mxGeometry x="2480" y="382" width="120" height="60" as="geometry" />
        </mxCell>
        <mxCell id="jyqEJ0qr-PdA9ATOnDI3-295" value="&lt;div&gt;Tâches&lt;/div&gt;&lt;div&gt;du mois&lt;br&gt;&lt;/div&gt;" style="shape=trapezoid;perimeter=trapezoidPerimeter;whiteSpace=wrap;html=1;fixedSize=1;" parent="1" vertex="1">
          <mxGeometry x="2480" y="72" width="120" height="60" as="geometry" />
        </mxCell>
        <mxCell id="jyqEJ0qr-PdA9ATOnDI3-296" value="" style="rounded=1;whiteSpace=wrap;html=1;fillColor=#cce5ff;strokeColor=#36393d;" parent="1" vertex="1">
          <mxGeometry x="700" y="-279" width="360" height="10" as="geometry" />
        </mxCell>
        <mxCell id="jyqEJ0qr-PdA9ATOnDI3-297" value="&lt;div&gt;Contrôles du&lt;/div&gt;&lt;div&gt;personnage&lt;br&gt;&lt;/div&gt;" style="rounded=0;whiteSpace=wrap;html=1;" parent="1" vertex="1">
          <mxGeometry x="1160" y="-999" width="120" height="60" as="geometry" />
        </mxCell>
        <mxCell id="jyqEJ0qr-PdA9ATOnDI3-298" value="&lt;div&gt;Apparition des&lt;/div&gt;&lt;div&gt;HeatCore et objets&lt;br&gt;&lt;/div&gt;" style="rounded=0;whiteSpace=wrap;html=1;" parent="1" vertex="1">
          <mxGeometry x="1160" y="-939" width="120" height="60" as="geometry" />
        </mxCell>
        <mxCell id="jyqEJ0qr-PdA9ATOnDI3-299" value="&lt;div&gt;Contrôles&lt;/div&gt;&lt;div&gt;de la capsule&lt;br&gt;&lt;/div&gt;" style="rounded=0;whiteSpace=wrap;html=1;" parent="1" vertex="1">
          <mxGeometry x="1160" y="-879" width="120" height="60" as="geometry" />
        </mxCell>
        <mxCell id="HmtH44mMOcLNcZPi784R-2" value="" style="rounded=1;whiteSpace=wrap;html=1;fillColor=#cce5ff;strokeColor=#36393d;" parent="1" vertex="1">
          <mxGeometry x="640" y="-219" width="420" height="10" as="geometry" />
        </mxCell>
        <mxCell id="HmtH44mMOcLNcZPi784R-5" value="" style="rounded=1;whiteSpace=wrap;html=1;fillColor=#ffff88;strokeColor=#36393d;" parent="1" vertex="1">
          <mxGeometry x="640" y="-159" width="180" height="10" as="geometry" />
        </mxCell>
        <mxCell id="HmtH44mMOcLNcZPi784R-6" value="" style="rounded=1;whiteSpace=wrap;html=1;fillColor=#ffff88;strokeColor=#36393d;" parent="1" vertex="1">
          <mxGeometry x="880" y="-159" width="60" height="10" as="geometry" />
        </mxCell>
        <mxCell id="HmtH44mMOcLNcZPi784R-7" value="" style="rounded=1;whiteSpace=wrap;html=1;fillColor=#ffff88;strokeColor=#36393d;" parent="1" vertex="1">
          <mxGeometry x="640" y="233" width="420" height="10" as="geometry" />
        </mxCell>
        <mxCell id="HmtH44mMOcLNcZPi784R-8" value="" style="rounded=1;whiteSpace=wrap;html=1;fillColor=#ffff88;strokeColor=#36393d;" parent="1" vertex="1">
          <mxGeometry x="640" y="293" width="420" height="10" as="geometry" />
        </mxCell>
        <mxCell id="HmtH44mMOcLNcZPi784R-9" value="" style="rounded=1;whiteSpace=wrap;html=1;fillColor=#cdeb8b;strokeColor=#36393d;" parent="1" vertex="1">
          <mxGeometry x="640" y="353" width="420" height="15" as="geometry" />
        </mxCell>
        <mxCell id="HmtH44mMOcLNcZPi784R-10" value="" style="rounded=1;whiteSpace=wrap;html=1;fillColor=#cdeb8b;strokeColor=#36393d;" parent="1" vertex="1">
          <mxGeometry x="700" y="-269" width="360" height="10" as="geometry" />
        </mxCell>
        <mxCell id="HmtH44mMOcLNcZPi784R-11" value="" style="rounded=1;whiteSpace=wrap;html=1;fillColor=#cdeb8b;strokeColor=#36393d;" parent="1" vertex="1">
          <mxGeometry x="640" y="303" width="420" height="10" as="geometry" />
        </mxCell>
        <mxCell id="HmtH44mMOcLNcZPi784R-12" value="" style="rounded=1;whiteSpace=wrap;html=1;fillColor=#cdeb8b;strokeColor=#36393d;" parent="1" vertex="1">
          <mxGeometry x="640" y="243" width="420" height="10" as="geometry" />
        </mxCell>
        <mxCell id="HmtH44mMOcLNcZPi784R-13" value="" style="rounded=1;whiteSpace=wrap;html=1;fillColor=#cdeb8b;strokeColor=#36393d;" parent="1" vertex="1">
          <mxGeometry x="640" y="-209" width="420" height="10" as="geometry" />
        </mxCell>
        <mxCell id="HmtH44mMOcLNcZPi784R-14" value="" style="rounded=1;whiteSpace=wrap;html=1;fillColor=#cdeb8b;strokeColor=#36393d;" parent="1" vertex="1">
          <mxGeometry x="640" y="-149" width="180" height="10" as="geometry" />
        </mxCell>
        <mxCell id="HmtH44mMOcLNcZPi784R-15" value="" style="rounded=1;whiteSpace=wrap;html=1;fillColor=#cdeb8b;strokeColor=#36393d;" parent="1" vertex="1">
          <mxGeometry x="880" y="-149" width="60" height="10" as="geometry" />
        </mxCell>
        <mxCell id="HmtH44mMOcLNcZPi784R-17" value="logo" style="rounded=0;whiteSpace=wrap;html=1;" parent="1" vertex="1">
          <mxGeometry x="1030" y="-819" width="120" height="60" as="geometry" />
        </mxCell>
        <mxCell id="HmtH44mMOcLNcZPi784R-18" value="Objectifs" style="rounded=0;whiteSpace=wrap;html=1;" parent="1" vertex="1">
          <mxGeometry x="1160" y="-819" width="120" height="60" as="geometry" />
        </mxCell>
        <mxCell id="HmtH44mMOcLNcZPi784R-19" value="&lt;div&gt;Textures&lt;/div&gt;- cube-morpion" style="rounded=0;whiteSpace=wrap;html=1;fillColor=#f5f5f5;fontColor=#333333;strokeColor=#666666;" parent="1" vertex="1">
          <mxGeometry x="1550" y="-700.5" width="120" height="60" as="geometry" />
        </mxCell>
        <mxCell id="HmtH44mMOcLNcZPi784R-20" value="&lt;div&gt;Modèles 3D&lt;br&gt;&lt;/div&gt;- cube-morpion" style="rounded=0;whiteSpace=wrap;html=1;fillColor=#f5f5f5;fontColor=#333333;strokeColor=#666666;" parent="1" vertex="1">
          <mxGeometry x="1420" y="-699.5" width="120" height="60" as="geometry" />
        </mxCell>
        <mxCell id="HmtH44mMOcLNcZPi784R-23" value="" style="rounded=1;whiteSpace=wrap;html=1;fillColor=#ffcccc;strokeColor=#36393d;" parent="1" vertex="1">
          <mxGeometry x="640" y="-139" width="180" height="10" as="geometry" />
        </mxCell>
        <mxCell id="HmtH44mMOcLNcZPi784R-24" value="" style="rounded=1;whiteSpace=wrap;html=1;fillColor=#ffcccc;strokeColor=#36393d;" parent="1" vertex="1">
          <mxGeometry x="880" y="-139" width="180" height="10" as="geometry" />
        </mxCell>
        <mxCell id="HmtH44mMOcLNcZPi784R-25" value="" style="rounded=1;whiteSpace=wrap;html=1;fillColor=#ffcccc;strokeColor=#36393d;" parent="1" vertex="1">
          <mxGeometry x="640" y="-199" width="420" height="10" as="geometry" />
        </mxCell>
        <mxCell id="HmtH44mMOcLNcZPi784R-26" value="" style="rounded=1;whiteSpace=wrap;html=1;fillColor=#ffcccc;strokeColor=#36393d;" parent="1" vertex="1">
          <mxGeometry x="700" y="-259" width="360" height="10" as="geometry" />
        </mxCell>
        <mxCell id="HmtH44mMOcLNcZPi784R-28" value="&lt;div&gt;Cube-Morpion&lt;/div&gt;&lt;div&gt;pour les portes&lt;br&gt;&lt;/div&gt;" style="rounded=0;whiteSpace=wrap;html=1;fillColor=#ffcccc;strokeColor=#36393d;fontStyle=0" parent="1" vertex="1">
          <mxGeometry x="1120" y="263" width="120" height="60" as="geometry" />
        </mxCell>
        <mxCell id="HmtH44mMOcLNcZPi784R-31" value="" style="rounded=1;whiteSpace=wrap;html=1;fillColor=#ffcccc;strokeColor=#36393d;" parent="1" vertex="1">
          <mxGeometry x="640" y="313" width="420" height="10" as="geometry" />
        </mxCell>
        <mxCell id="HmtH44mMOcLNcZPi784R-32" value="" style="rounded=1;whiteSpace=wrap;html=1;fillColor=#ffcccc;strokeColor=#36393d;" parent="1" vertex="1">
          <mxGeometry x="640" y="253" width="420" height="10" as="geometry" />
        </mxCell>
        <mxCell id="HmtH44mMOcLNcZPi784R-33" value="ORGANISATION PP42 - TROPHÉE NSI 2025 - HeatCore" style="shape=trapezoid;perimeter=trapezoidPerimeter;whiteSpace=wrap;html=1;fixedSize=1;fillColor=#6d8764;fontColor=#ffffff;strokeColor=#3A5431;fontStyle=1;fontSize=30;" parent="1" vertex="1">
          <mxGeometry x="1120" y="-1190" width="1010" height="60" as="geometry" />
        </mxCell>
        <mxCell id="HmtH44mMOcLNcZPi784R-34" value="&lt;div&gt;plannification&lt;/div&gt;&lt;div&gt;en cours&lt;br&gt;&lt;/div&gt;" style="rhombus;whiteSpace=wrap;html=1;fillColor=#b1ddf0;strokeColor=#10739e;" parent="1" vertex="1">
          <mxGeometry x="600" y="31" width="80" height="80" as="geometry" />
        </mxCell>
        <mxCell id="HmtH44mMOcLNcZPi784R-35" value="&lt;div&gt;non&lt;/div&gt;&lt;div&gt;planifié&lt;br&gt;&lt;/div&gt;" style="rhombus;whiteSpace=wrap;html=1;fillColor=#b1ddf0;strokeColor=#10739e;" parent="1" vertex="1">
          <mxGeometry x="1280" y="-420" width="80" height="80" as="geometry" />
        </mxCell>
        <mxCell id="HmtH44mMOcLNcZPi784R-36" value="&lt;div&gt;non&lt;/div&gt;&lt;div&gt;planifié&lt;br&gt;&lt;/div&gt;" style="rhombus;whiteSpace=wrap;html=1;fillColor=#b1ddf0;strokeColor=#10739e;" parent="1" vertex="1">
          <mxGeometry x="1280" y="31" width="80" height="80" as="geometry" />
        </mxCell>
        <mxCell id="HmtH44mMOcLNcZPi784R-37" value="&lt;div&gt;non&lt;/div&gt;&lt;div&gt;planifié&lt;br&gt;&lt;/div&gt;" style="rhombus;whiteSpace=wrap;html=1;fillColor=#b1ddf0;strokeColor=#10739e;" parent="1" vertex="1">
          <mxGeometry x="1965" y="-419.5" width="80" height="80" as="geometry" />
        </mxCell>
        <mxCell id="HmtH44mMOcLNcZPi784R-38" value="&lt;div&gt;non&lt;/div&gt;&lt;div&gt;planifié&lt;br&gt;&lt;/div&gt;" style="rhombus;whiteSpace=wrap;html=1;fillColor=#b1ddf0;strokeColor=#10739e;" parent="1" vertex="1">
          <mxGeometry x="1965" y="31.5" width="80" height="80" as="geometry" />
        </mxCell>
        <mxCell id="my80pRcHLwecYGXLhU4Q-1" value="&lt;div&gt;Sauvegarde&lt;/div&gt;&lt;div&gt;de la progression&lt;br&gt;&lt;/div&gt;" style="rounded=0;whiteSpace=wrap;html=1;" parent="1" vertex="1">
          <mxGeometry x="1160" y="-759" width="120" height="60" as="geometry" />
        </mxCell>
        <mxCell id="my80pRcHLwecYGXLhU4Q-4" value="very hard" style="rounded=1;whiteSpace=wrap;html=1;fillColor=#ffe6cc;strokeColor=#d79b00;" parent="1" vertex="1">
          <mxGeometry x="1460" y="-1060" width="80" height="40" as="geometry" />
        </mxCell>
        <mxCell id="my80pRcHLwecYGXLhU4Q-5" value="&lt;div&gt;irréalisable&lt;/div&gt;pour l&#39;instant" style="rounded=1;whiteSpace=wrap;html=1;fillColor=#f5f5f5;fontColor=#333333;strokeColor=#666666;" parent="1" vertex="1">
          <mxGeometry x="1375" y="-1060" width="80" height="40" as="geometry" />
        </mxCell>
        <mxCell id="wIUoLdGt7ljQIlAXQO_F-1" value="" style="rounded=1;whiteSpace=wrap;html=1;fillColor=#ffcccc;strokeColor=#36393d;" vertex="1" parent="1">
          <mxGeometry x="640" y="368" width="420" height="15" as="geometry" />
        </mxCell>
        <mxCell id="wIUoLdGt7ljQIlAXQO_F-2" value="" style="rounded=1;whiteSpace=wrap;html=1;fillColor=#cdeb8b;strokeColor=#36393d;" vertex="1" parent="1">
          <mxGeometry x="640" y="413" width="360" height="15" as="geometry" />
        </mxCell>
        <mxCell id="wIUoLdGt7ljQIlAXQO_F-3" value="" style="rounded=1;whiteSpace=wrap;html=1;fillColor=#f9f7ed;strokeColor=#36393d;" vertex="1" parent="1">
          <mxGeometry x="640" y="429" width="360" height="15" as="geometry" />
        </mxCell>
        <mxCell id="wIUoLdGt7ljQIlAXQO_F-5" value="" style="rounded=1;whiteSpace=wrap;html=1;fillColor=#cdeb8b;strokeColor=#36393d;" vertex="1" parent="1">
          <mxGeometry x="1680" y="-278" width="60" height="15" as="geometry" />
        </mxCell>
        <mxCell id="wIUoLdGt7ljQIlAXQO_F-6" value="" style="rounded=1;whiteSpace=wrap;html=1;fillColor=#f9f7ed;strokeColor=#36393d;" vertex="1" parent="1">
          <mxGeometry x="1680" y="-263" width="60" height="15" as="geometry" />
        </mxCell>
        <mxCell id="wIUoLdGt7ljQIlAXQO_F-7" value="" style="rounded=1;whiteSpace=wrap;html=1;fillColor=#ffff88;strokeColor=#36393d;" vertex="1" parent="1">
          <mxGeometry x="1320" y="-218" width="420" height="30" as="geometry" />
        </mxCell>
        <mxCell id="wIUoLdGt7ljQIlAXQO_F-8" value="&lt;div&gt;Tests Model 3D&lt;/div&gt;&lt;div&gt;personnage&lt;br&gt;&lt;/div&gt;" style="rounded=0;whiteSpace=wrap;html=1;fontStyle=0;fillColor=#f9f7ed;strokeColor=#36393d;" vertex="1" parent="1">
          <mxGeometry x="1800" y="-310" width="120" height="60" as="geometry" />
        </mxCell>
        <mxCell id="wIUoLdGt7ljQIlAXQO_F-9" value="&lt;div&gt;Tests Model 3D&lt;/div&gt;&lt;div&gt;personnage&lt;br&gt;&lt;/div&gt;" style="rounded=0;whiteSpace=wrap;html=1;fontStyle=0;fillColor=#f9f7ed;strokeColor=#36393d;" vertex="1" parent="1">
          <mxGeometry x="1120" y="323" width="120" height="60" as="geometry" />
        </mxCell>
      </root>
    </mxGraphModel>
  </diagram>
</mxfile>
